<svg width="1040" height="1040" viewBox="0 0 1040 1040" fill="none" xmlns="http://www.w3.org/2000/svg">
<rect x="4.19617e-05" width="1040" height="1040" fill="url(#paint0_linear_1_105)"/>
<line x1="1040" y1="20" x2="40" y2="20" stroke="black" stroke-width="40"/>
<line x1="1040" y1="220" x2="40" y2="220" stroke="black" stroke-width="40"/>
<line x1="1040" y1="420" x2="40" y2="420" stroke="black" stroke-width="40"/>
<line x1="1040" y1="620" x2="40" y2="620" stroke="black" stroke-width="40"/>
<line x1="1040" y1="820" x2="40" y2="820" stroke="black" stroke-width="40"/>
<line x1="1040" y1="1020" x2="4.28359e-05" y2="1020" stroke="black" stroke-width="40"/>
<line x1="1020" y1="1000" x2="1020" y2="8.74228e-07" stroke="black" stroke-width="40"/>
<line x1="820" y1="1000" x2="820" y2="8.74228e-07" stroke="black" stroke-width="40"/>
<line x1="620" y1="1000" x2="620" y2="8.74228e-07" stroke="black" stroke-width="40"/>
<line x1="420" y1="1000" x2="420" y2="8.74228e-07" stroke="black" stroke-width="40"/>
<line x1="220" y1="1000" x2="220" y2="8.74228e-07" stroke="black" stroke-width="40"/>
<line x1="20" y1="1000" x2="20" y2="8.74228e-07" stroke="black" stroke-width="40"/>
<defs>
<linearGradient id="paint0_linear_1_105" x1="520" y1="0" x2="520" y2="1040" gradientUnits="userSpaceOnUse">
<stop stop-color="#0000FF"/>
<stop offset="0.5" stop-color="#00FF00"/>
<stop offset="1" stop-color="#FF0000"/>
</linearGradient>
</defs>
</svg>
